<?xml version="1.0" standalone="no"?>
<!DOCTYPE svg PUBLIC "-//W3C//DTD SVG 20010904//EN"
 "http://www.w3.org/TR/2001/REC-SVG-20010904/DTD/svg10.dtd">
<svg version="1.0" xmlns="http://www.w3.org/2000/svg"
 width="397.000000pt" height="397.000000pt" viewBox="0 0 397.000000 397.000000"
 preserveAspectRatio="xMidYMid meet">
<metadata>
Created by potrace 1.14, written by Peter Selinger 2001-2017
</metadata>
<g transform="translate(0.000000,397.000000) scale(0.100000,-0.100000)"
fill="#000000" stroke="none">
<path d="M229 3360 c-71 -9 -93 -28 -120 -112 -19 -60 -24 -95 -24 -198 -1
-69 -7 -154 -13 -190 -7 -36 -17 -87 -23 -115 -5 -27 -11 -70 -14 -95 -5 -48
-18 -870 -16 -1055 1 -60 1 -157 0 -215 -4 -674 -2 -701 54 -732 16 -10 114
-13 387 -15 807 -5 855 -4 949 18 145 33 212 57 309 106 74 38 108 64 165 123
104 108 104 108 147 214 l39 96 0 775 c1 883 4 838 -83 1020 -63 130 -118 192
-216 239 -61 30 -203 79 -260 90 -14 2 -45 9 -70 14 -112 25 -297 34 -720 36
-245 0 -466 -1 -491 -4z m875 -494 c62 -26 112 -72 134 -123 19 -45 20 -70 20
-413 0 -201 1 -504 1 -675 1 -170 -1 -339 -3 -375 -2 -36 -4 -75 -5 -87 -1
-19 -7 -23 -34 -23 -26 0 -36 -6 -45 -25 -7 -16 -20 -25 -34 -26 -13 0 -34 -2
-48 -5 -252 -42 -251 -42 -280 16 -19 37 -19 65 -20 878 0 834 0 841 20 847
11 3 20 10 20 15 0 13 27 16 136 14 65 -1 114 -8 138 -18z m826 -1889 c0 -1
-39 -41 -87 -87 -103 -100 -104 -99 -3 9 64 68 90 91 90 78z"/>
<path d="M2210 3312 c-23 -8 -39 -63 -44 -148 -16 -277 -19 -438 -17 -899 2
-751 2 -998 0 -1115 -1 -58 -1 -187 1 -288 3 -198 6 -207 60 -229 24 -10 298
-15 795 -14 168 0 231 -3 237 -12 6 -9 8 -9 8 1 0 10 64 12 310 11 217 0 315
3 324 10 8 7 17 28 22 49 4 20 9 44 11 52 8 28 9 325 1 347 -4 14 -16 23 -28
23 -11 0 -32 7 -45 16 -21 14 -81 16 -457 18 -238 2 -442 6 -454 10 -20 6 -20
9 -9 64 7 31 10 82 9 112 -2 30 -5 118 -7 195 -2 78 -6 146 -10 152 -10 16 40
53 72 54 14 1 60 3 101 5 69 3 145 3 395 0 158 -2 226 8 250 36 15 17 20 35
18 63 -3 50 -5 297 -3 310 1 6 2 24 1 42 -2 59 -11 62 -208 58 -98 -2 -182 -4
-188 -5 -5 -1 -37 4 -69 11 -46 10 -74 10 -130 1 -68 -12 -81 -11 -216 12 -12
3 -14 18 -11 82 1 43 6 97 10 119 4 22 3 56 -1 75 -9 37 -11 170 -3 178 3 3
210 5 460 5 251 0 458 4 461 8 2 5 7 134 10 287 l5 280 -68 12 c-51 10 -254
13 -825 14 -417 1 -763 -1 -768 -2z m-23 -2414 c-2 -13 -4 -3 -4 22 0 25 2 35
4 23 2 -13 2 -33 0 -45z m9 -63 c-2 -35 -11 -39 -12 -4 -1 16 2 29 6 29 4 0 6
-11 6 -25z"/>
</g>
</svg>
