<?xml version="1.0" standalone="no"?>
<!DOCTYPE svg PUBLIC "-//W3C//DTD SVG 20010904//EN"
 "http://www.w3.org/TR/2001/REC-SVG-20010904/DTD/svg10.dtd">
<svg version="1.0" xmlns="http://www.w3.org/2000/svg"
 width="511.000000pt" height="511.000000pt" viewBox="0 0 511.000000 511.000000"
 preserveAspectRatio="xMidYMid meet">
<metadata>
Created by potrace 1.14, written by Peter Selinger 2001-2017
</metadata>
<g transform="translate(0.000000,511.000000) scale(0.100000,-0.100000)"
fill="#000000" stroke="none">
<path d="M4150 3683 c-82 -31 -150 -35 -215 -12 -52 18 -84 22 -172 20 -82 -2
-88 -13 -87 -148 1 -62 -1 -113 -5 -113 -3 0 -15 7 -25 15 -11 8 -28 15 -38
15 -9 0 -129 -64 -265 -141 -136 -78 -261 -150 -278 -159 -79 -45 -135 -83
-135 -91 0 -5 7 -21 16 -35 12 -17 22 -23 35 -19 14 5 19 1 19 -12 0 -17 -34
-18 -842 -15 -464 2 -981 5 -1150 8 l-307 4 -7 -23 c-4 -12 -7 -80 -6 -152 l1
-130 -20 74 c-27 104 -49 141 -101 174 -74 46 -134 57 -326 57 -138 0 -179 -3
-203 -16 -30 -15 -31 -16 -24 -72 8 -74 9 -136 1 -376 -4 -151 -3 -203 7 -214
8 -11 8 -13 0 -9 -10 6 -16 -65 -14 -163 0 -8 0 -98 1 -199 0 -102 5 -191 11
-202 8 -16 22 -19 102 -18 51 0 142 0 203 -1 121 0 174 12 231 55 39 31 90
103 97 138 2 14 9 34 15 45 6 11 7 22 4 26 -3 3 -2 6 4 6 5 0 10 -49 10 -120
1 -73 6 -126 12 -134 16 -19 556 -22 567 -4 4 6 8 56 10 110 2 98 2 99 -25
111 -17 9 -72 13 -163 12 -76 0 -138 2 -138 5 -7 91 -3 254 7 262 6 5 63 10
125 11 62 2 119 6 126 11 19 12 14 135 -6 159 -14 15 -13 17 1 17 11 0 17 8
17 25 0 14 -3 26 -7 26 -5 1 -62 2 -129 3 -66 1 -124 5 -130 8 -5 3 -8 52 -6
110 l3 104 184 2 c106 1 186 -2 190 -8 3 -5 6 -149 6 -319 0 -233 3 -312 12
-318 7 -4 28 -8 47 -9 77 -4 96 -7 74 -11 -19 -4 -21 -11 -20 -51 1 -35 -3
-47 -14 -48 -8 -1 -21 -2 -27 -3 -10 -1 -13 -29 -13 -103 0 -57 4 -108 8 -114
23 -34 85 -19 82 19 -1 12 -2 31 -1 42 2 31 21 -3 21 -38 0 -28 28 -48 60 -41
8 1 18 3 23 3 4 1 7 11 7 24 l1 22 20 -24 c29 -35 97 -36 134 -1 24 23 27 31
23 82 -2 31 -1 55 3 53 3 -3 15 -36 25 -74 15 -60 22 -72 46 -82 40 -16 73 1
89 45 17 46 25 45 33 -3 8 -51 36 -62 144 -59 64 2 86 7 96 19 11 15 13 15 35
-2 37 -30 119 -21 143 15 4 6 8 34 9 61 l2 50 6 -56 c8 -79 18 -87 101 -88 59
0 71 3 80 19 13 24 13 180 0 200 -11 17 -50 22 -66 9 -15 -12 -15 -99 0 -118
8 -11 8 -13 -1 -7 -8 4 -13 1 -13 -8 0 -9 -4 -16 -8 -16 -4 0 -6 31 -4 69 4
63 2 70 -18 81 -12 6 -33 9 -46 6 -20 -5 -24 -13 -26 -49 -1 -40 -1 -41 -5 -7
-3 19 -9 40 -15 47 -10 12 -97 11 -149 -2 l-26 -6 5 55 4 56 -36 0 c-23 0 -39
-5 -42 -15 -4 -10 -20 -15 -49 -15 -46 0 -69 -17 -59 -44 5 -13 0 -16 -24 -16
-18 0 -35 -7 -40 -15 -7 -14 -11 -13 -27 5 -15 17 -30 20 -90 20 -39 0 -76 -5
-82 -11 -8 -8 -17 -8 -31 0 -32 17 -121 14 -128 -4 -4 -8 -10 -13 -15 -10 -4
3 -4 18 2 33 9 23 7 29 -13 45 -58 44 -67 52 -68 57 0 3 161 4 357 3 1037 -5
1034 -5 1022 -19 -14 -17 -2 -71 18 -78 14 -6 13 -9 -5 -27 -12 -11 -22 -26
-22 -34 0 -20 35 -37 73 -35 18 1 41 1 52 1 18 -2 19 -2 3 -12 -15 -8 -18 -24
-18 -89 0 -73 -2 -80 -20 -80 -17 0 -18 3 -10 26 17 44 12 91 -14 121 -21 24
-31 28 -73 27 -81 -1 -103 -10 -103 -42 0 -34 23 -78 38 -74 19 3 14 -22 -11
-59 -22 -33 -41 -41 -157 -64 -14 -2 -90 -18 -170 -35 -80 -17 -156 -33 -170
-36 -14 -3 -43 -10 -65 -16 -22 -6 -53 -12 -70 -15 -34 -5 -65 -29 -65 -49 0
-32 53 -27 289 27 25 6 67 15 95 20 28 6 60 12 71 14 71 15 113 24 135 29 14
4 42 9 63 12 32 6 37 4 37 -13 0 -59 90 -113 181 -109 96 4 155 53 167 141 l7
50 68 11 c48 8 67 8 68 0 1 -6 2 -47 3 -91 1 -44 5 -86 9 -92 11 -17 98 -17
120 0 14 10 18 30 19 115 0 67 4 102 12 103 6 1 22 2 36 3 l24 1 1 -105 c1
-58 5 -111 9 -118 11 -18 87 -9 100 11 9 14 14 14 41 -3 57 -35 132 -30 179
10 39 35 50 74 49 188 0 39 2 72 6 73 3 0 22 2 41 4 116 10 179 16 210 20 19
2 80 7 135 10 70 4 107 10 125 23 14 9 32 20 40 23 34 15 -44 30 -120 24 -41
-3 -109 -8 -150 -11 -41 -2 -93 -7 -115 -9 -145 -16 -175 -16 -175 -2 0 21
-40 33 -95 27 -46 -5 -50 -7 -53 -32 -3 -21 -9 -28 -25 -29 -12 0 -30 -2 -39
-4 -14 -2 -18 4 -18 25 0 16 -5 32 -11 36 -10 6 -129 7 -135 1 -2 -1 -5 -20
-7 -42 -3 -29 -10 -41 -27 -47 -13 -5 -24 -7 -25 -6 -1 2 -10 18 -19 36 -28
54 -67 72 -157 69 -95 -3 -117 -18 -113 -77 3 -55 9 -60 62 -55 l47 4 -40 -9
c-81 -18 -82 -17 -87 55 -2 35 -6 66 -9 69 -2 3 -26 6 -52 7 -58 3 -52 12 8
14 55 2 59 6 57 50 -2 48 -8 55 -47 55 -29 0 -37 5 -51 33 -19 36 -33 48 -49
40 -5 -4 -7 -3 -4 1 12 14 1599 4 1664 -10 21 -5 73 -6 115 -1 41 4 106 10
144 12 39 3 75 10 80 15 7 7 11 120 12 323 1 172 3 315 3 320 1 4 16 7 34 7
55 0 59 8 59 116 1 126 -4 141 -45 146 -18 2 -215 3 -439 3 -388 0 -408 1
-408 18 0 14 5 17 19 12 23 -7 55 33 46 56 -3 8 -131 86 -284 174 -171 98
-275 163 -268 168 19 13 199 5 236 -11 83 -34 280 -4 282 42 0 12 1 59 3 104
3 95 -4 154 -19 157 -6 2 -39 -8 -75 -22z m-3777 -923 c15 -12 30 -35 35 -53
4 -18 8 -185 8 -373 -1 -303 -3 -342 -18 -357 -18 -18 -104 -41 -119 -31 -8 5
-12 237 -8 494 0 30 1 116 2 190 1 74 5 137 9 140 18 14 67 8 91 -10z m314
-162 c-3 -8 -6 -5 -6 6 -1 11 2 17 5 13 3 -3 4 -12 1 -19z m1 -107 c2 -22 -1
-42 -5 -44 -7 -4 -10 49 -4 76 3 18 7 4 9 -32z m-1 -103 c-3 -8 -6 -5 -6 6 -1
11 2 17 5 13 3 -3 4 -12 1 -19z m-2 -73 c-2 -33 -15 -45 -15 -13 0 20 7 38 14
38 1 0 1 -11 1 -25z m12 -177 c-2 -13 -4 -5 -4 17 -1 22 1 32 4 23 2 -10 2
-28 0 -40z m2283 -72 c0 -2 -15 -6 -34 -8 -19 -2 -32 0 -30 4 5 8 64 12 64 4z
m-2293 -48 c-3 -8 -6 -5 -6 6 -1 11 2 17 5 13 3 -3 4 -12 1 -19z m805 -110
c-10 -22 -11 -21 -11 12 -1 26 2 31 11 22 8 -8 8 -17 0 -34z m571 -23 c-5 -39
-2 -49 17 -70 13 -14 30 -25 37 -25 30 0 3 -16 -31 -18 l-34 -3 -4 81 c-2 58
0 80 9 80 9 0 11 -13 6 -45z m-460 3 c2 -7 -3 -23 -10 -35 -8 -12 -12 -27 -8
-33 3 -5 2 -10 -4 -10 -14 0 -18 31 -8 63 10 29 23 35 30 15z m271 -29 c-3 -5
-10 -7 -15 -3 -5 3 -7 10 -3 15 3 5 10 7 15 3 5 -3 7 -10 3 -15z m344 -20 c19
-30 12 -31 -33 -3 l-40 24 30 0 c20 0 35 -7 43 -21z m92 -51 c0 -16 -3 -19
-11 -11 -6 6 -8 16 -5 22 11 17 16 13 16 -11z m1424 -110 c-1 -24 -2 -53 -3
-65 -1 -18 -7 -23 -31 -23 -36 0 -50 23 -50 84 0 43 2 46 33 54 43 12 54 1 51
-50z m-744 -77 c0 -11 -5 -23 -10 -26 -15 -9 -50 4 -50 20 0 12 9 16 53 24 4
0 7 -8 7 -18z"/>
<path d="M4539 1908 c-13 -11 -14 -18 -6 -38 6 -14 11 -46 12 -72 0 -45 -1
-47 -33 -53 -40 -7 -48 -25 -32 -66 13 -30 14 -31 66 -24 33 4 54 2 59 -4 3
-6 0 -11 -7 -12 -81 -4 -151 -59 -143 -111 2 -10 -2 -18 -8 -18 -8 0 -12 30
-11 97 0 54 -3 107 -6 118 -9 25 -84 39 -101 18 -7 -8 -10 -59 -8 -142 5 -149
13 -167 88 -181 33 -6 44 -4 57 11 14 16 19 16 38 4 14 -9 53 -13 114 -13 79
0 94 2 102 18 11 20 7 206 -4 233 -6 12 -4 17 8 17 9 0 16 -3 17 -7 0 -5 1
-52 3 -106 2 -80 6 -102 23 -124 25 -35 59 -44 100 -27 20 8 35 9 38 3 9 -13
81 -11 93 4 13 15 14 285 1 308 -6 12 -20 16 -47 14 -22 -1 -43 -5 -48 -8 -6
-3 -9 -54 -9 -112 0 -83 -3 -109 -13 -113 -23 -8 -28 13 -26 110 2 117 -5 131
-56 123 -42 -6 -49 -1 -57 48 -6 39 -3 36 -41 39 -22 1 -32 7 -32 19 0 41 -96
75 -131 47z m72 -365 c0 -5 2 -15 4 -25 3 -14 -1 -15 -26 -6 -28 9 -29 11 -12
24 20 15 33 18 34 7z"/>
</g>
</svg>
