<?xml version="1.0" standalone="no"?>
<!DOCTYPE svg PUBLIC "-//W3C//DTD SVG 20010904//EN"
 "http://www.w3.org/TR/2001/REC-SVG-20010904/DTD/svg10.dtd">
<svg version="1.0" xmlns="http://www.w3.org/2000/svg"
 width="1906.000000pt" height="1906.000000pt" viewBox="0 0 1906.000000 1906.000000"
 preserveAspectRatio="xMidYMid meet">
<metadata>
Created by potrace 1.14, written by Peter Selinger 2001-2017
</metadata>
<g transform="translate(0.000000,1906.000000) scale(0.100000,-0.100000)"
fill="#000000" stroke="none">
<path d="M1859 14686 c-2 -2 -84 -6 -182 -10 -210 -7 -251 -15 -272 -56 -8
-16 -15 -36 -15 -44 0 -23 -63 -206 -71 -206 -7 0 -18 10 -115 100 -66 61 -72
50 -69 -132 2 -84 6 -189 9 -233 13 -156 17 -200 20 -203 2 -1 44 21 93 51 70
41 95 52 111 46 12 -5 22 -11 22 -14 0 -12 -99 -206 -121 -236 -12 -17 -23
-43 -25 -58 -2 -14 -6 -57 -10 -96 -3 -38 -7 -81 -9 -95 -2 -22 -9 -93 -20
-220 -2 -19 -6 -73 -10 -120 -3 -47 -8 -101 -10 -120 -2 -19 -7 -84 -10 -145
-6 -121 -14 -235 -20 -305 -2 -25 -7 -81 -10 -125 -4 -44 -9 -96 -11 -115 -5
-46 -4 -357 1 -440 2 -36 6 -92 9 -125 3 -33 9 -94 12 -135 4 -51 16 -96 35
-139 l29 -64 -44 -38 c-68 -60 -76 -106 -35 -196 18 -40 19 -57 14 -191 -4
-81 -8 -169 -10 -197 -23 -347 -22 -856 2 -1270 12 -216 7 -662 -14 -1060 -13
-253 -10 -366 11 -405 57 -109 157 -154 341 -153 66 0 110 6 280 34 104 17
229 13 305 -9 36 -10 74 -18 85 -16 30 5 75 12 125 19 25 4 69 10 99 15 66 9
176 12 551 14 305 1 410 -4 560 -30 87 -14 276 -20 325 -10 11 2 40 7 65 11
36 5 138 30 300 71 76 19 194 44 235 50 42 5 142 32 191 51 12 4 14 -9 10 -78
-2 -50 1 -100 8 -124 11 -36 12 -26 11 87 l-1 126 105 70 c156 103 329 231
380 282 36 35 277 398 367 552 73 125 105 217 109 323 4 91 17 329 21 385 2
30 6 213 9 405 5 322 3 358 -15 455 -48 249 -51 284 -44 525 3 127 7 248 9
270 4 60 14 208 20 320 3 55 8 132 10 170 17 266 20 373 20 635 0 253 -7 447
-19 565 -2 17 -6 59 -10 95 -4 36 -9 79 -11 95 -2 17 -6 57 -10 90 -4 33 -9
69 -11 80 -3 11 -7 36 -10 55 -16 110 -31 141 -143 299 -45 63 -81 117 -82
120 0 3 -1 24 -3 47 -5 83 -148 246 -311 356 -215 143 -381 208 -623 244 -20
3 -48 7 -62 10 -14 2 -50 6 -80 9 -30 3 -71 8 -90 10 -42 5 -166 13 -305 20
-359 16 -465 20 -760 30 -99 3 -234 8 -300 10 -188 7 -931 16 -936 11z m1368
-1070 c57 -3 124 -11 150 -17 27 -6 53 -12 58 -13 29 -6 116 -39 155 -59 215
-109 343 -279 365 -487 10 -84 10 -198 0 -510 -9 -316 -7 -414 9 -510 9 -48
12 -118 8 -195 -8 -179 -7 -407 1 -520 4 -55 10 -138 14 -185 11 -151 5 -432
-11 -517 -12 -58 -19 -320 -21 -763 -2 -267 -6 -505 -10 -530 -8 -47 -12 -74
-14 -102 0 -9 -17 -25 -37 -34 -92 -44 -114 -170 -60 -342 l8 -23 -37 23 c-27
17 -41 36 -53 73 -23 68 -54 109 -99 130 -43 21 -150 28 -208 15 -22 -5 -53
-11 -70 -14 -39 -7 -316 -65 -335 -71 -8 -2 -39 -7 -68 -10 -67 -8 -131 20
-155 68 -28 55 -130 307 -126 310 2 1 18 10 34 19 46 26 61 74 48 161 -10 67
-9 264 2 332 3 17 8 82 11 145 6 110 5 122 -30 258 -20 79 -42 151 -48 161
-10 16 -5 25 30 58 48 45 52 70 27 163 -8 30 -15 78 -16 105 -4 200 -3 267 3
315 3 30 9 82 12 116 3 33 12 96 21 140 8 43 13 91 10 106 -7 32 -50 52 -100
46 -19 -2 -35 0 -35 4 0 4 15 29 33 55 19 27 44 73 58 103 22 51 23 65 20 190
-8 344 -4 520 16 660 2 19 6 280 9 579 2 299 5 545 6 547 6 4 96 14 193 20 55
3 102 7 103 9 2 2 9 2 15 0 7 -2 58 -6 114 -9z m-1745 -849 c-3 -17 -18 -42
-35 -57 -27 -24 -29 -30 -18 -44 7 -9 20 -16 28 -16 8 0 11 -5 8 -10 -8 -13
-42 -3 -72 20 l-22 17 34 36 c24 24 35 45 35 65 0 36 7 44 29 30 12 -7 16 -20
13 -41z m732 -1336 c3 -5 -2 -12 -11 -15 -14 -6 -7 -16 37 -55 74 -66 48 -75
-31 -10 l-62 52 24 18 c27 21 35 23 43 10z m1831 -2894 c30 -53 31 -57 5 -57
-34 0 -67 97 -33 100 1 0 14 -20 28 -43z m567 -159 c7 -20 -4 -58 -16 -58 -26
0 -35 22 -19 46 17 26 29 30 35 12z"/>
<path d="M8248 14685 c-2 -2 -38 -6 -80 -9 -42 -4 -85 -8 -95 -10 -10 -2 -52
-7 -93 -11 -41 -4 -84 -9 -95 -11 -38 -8 -260 -4 -297 5 -61 14 -109 7 -178
-28 -71 -36 -72 -36 -200 -1 -41 11 -91 23 -110 25 -122 16 -187 20 -375 18
-115 -1 -311 -2 -435 -4 -124 -1 -237 1 -252 4 -16 3 -29 3 -29 -1 -4 -20 -7
-56 -13 -137 -4 -49 -9 -112 -11 -140 -15 -179 -17 -247 -16 -390 1 -88 3
-176 5 -195 21 -179 25 -446 11 -670 -10 -167 -10 -263 1 -360 10 -96 10 -239
-2 -360 -11 -117 -11 -402 1 -615 11 -198 11 -458 2 -590 -16 -217 -21 -303
-21 -380 0 -87 11 -265 19 -305 22 -114 22 -1224 0 -1260 -2 -3 -7 -33 -10
-65 -4 -33 -9 -68 -11 -78 -1 -10 5 -44 16 -76 17 -53 19 -102 22 -526 l3
-466 25 -20 c36 -29 99 -55 166 -69 56 -12 233 -15 283 -5 13 2 56 7 95 10 39
4 77 8 85 11 33 11 192 4 264 -11 58 -12 87 -13 110 -6 31 10 446 24 672 23
114 -1 165 -5 250 -23 48 -9 214 -12 265 -4 14 2 57 9 95 15 107 18 327 24
368 11 43 -15 57 -30 67 -76 6 -25 5 -33 -3 -28 -14 9 -8477 6 -8562 -2 -32
-4 -64 -9 -70 -13 -5 -3 -20 -5 -32 -4 -13 2 -36 -5 -53 -14 l-30 -18 5 -276
c2 -151 4 -345 5 -431 l0 -156 123 -2 c67 -2 186 -3 263 -4 137 -2 141 -3 135
-22 -8 -24 -5 -2345 3 -2395 3 -19 8 -48 11 -65 6 -35 61 -86 90 -84 11 1 22
0 25 -1 3 -1 16 -4 30 -8 14 -3 3544 -7 7845 -9 7654 -4 7951 -3 8022 24 15 6
-2 16 -78 46 -38 16 -152 147 -175 203 -17 40 -2 99 29 115 65 35 433 -3 692
-71 90 -24 226 -29 292 -11 54 15 97 59 111 113 17 64 8 231 -16 306 -22 67
-60 132 -78 132 -6 0 -42 -27 -79 -60 -76 -67 -159 -124 -201 -140 -16 -6 -38
-15 -49 -20 -56 -27 -240 -36 -326 -16 -191 44 -295 107 -395 240 -102 134
-137 257 -109 387 10 48 13 168 14 469 0 567 4 602 82 770 86 183 128 219 308
263 81 20 116 23 270 21 188 -1 225 -6 282 -35 39 -19 86 -69 99 -105 7 -19
128 -94 151 -94 4 0 15 25 23 55 13 44 25 61 62 89 105 80 161 91 374 73 47
-4 134 -10 195 -13 65 -3 120 -11 137 -20 57 -29 57 -32 58 -505 0 -239 2
-499 4 -579 2 -80 0 -136 -5 -125 -6 15 -8 8 -9 -25 -1 -25 -3 -54 -5 -65 -2
-11 -7 -49 -11 -85 -3 -36 -9 -78 -11 -95 -6 -38 -10 -663 -5 -728 l4 -49 37
34 36 33 -37 -40 c-29 -32 -288 -446 -288 -462 0 -3 62 0 245 12 73 5 290 17
325 19 19 1 25 6 24 23 0 12 3 20 7 17 5 -2 14 15 21 38 10 34 13 289 13 1243
l0 1200 25 0 c48 1 276 20 370 31 25 3 54 6 65 7 20 2 20 10 22 377 2 352 1
379 -18 443 l-21 67 -646 0 c-356 0 -1350 2 -2209 3 l-1563 2 -1 50 c-2 102
-18 147 -76 201 -29 27 -168 104 -189 104 -6 0 -188 77 -259 110 -22 10 -60
27 -85 38 -25 11 -88 40 -140 65 -164 77 -270 126 -442 206 -47 21 -442 181
-564 228 -12 4 -12 -171 0 -417 2 -52 7 -171 11 -265 4 -93 8 -204 11 -245 8
-144 13 -650 6 -647 -4 1 -9 -2 -10 -8 -2 -5 -9 -16 -15 -24 -13 -15 -21 -561
-8 -561 6 0 6 -127 0 -660 -1 -140 -1 -304 0 -365 4 -151 -24 -250 -94 -333
-30 -36 -27 -71 9 -112 87 -99 114 -275 59 -384 -38 -76 -105 -117 -192 -119
-61 -1 -380 13 -421 18 -14 2 -49 4 -79 4 l-54 1 5 638 c4 559 7 642 21 675
15 35 17 130 17 953 0 844 -1 920 -17 977 -16 56 -18 114 -17 575 0 282 3 514
6 517 5 5 108 34 140 38 9 2 20 5 23 8 5 6 -104 59 -310 151 -60 28 -135 61
-165 75 -30 15 -78 28 -105 31 -47 4 -64 -2 -274 -103 -123 -59 -231 -111
-240 -116 -22 -12 -132 -61 -416 -186 -132 -58 -258 -113 -280 -123 -22 -10
-114 -50 -205 -90 -91 -40 -221 -97 -290 -127 -69 -31 -200 -89 -293 -129 -92
-40 -186 -82 -210 -93 -23 -10 -130 -57 -237 -104 -164 -71 -376 -165 -505
-222 -103 -46 -127 -53 -172 -51 -53 1 -68 11 -96 61 -22 40 -48 107 -44 112
2 2 121 55 263 118 142 64 268 119 279 125 57 26 178 80 440 194 160 70 327
145 371 167 144 69 174 131 114 236 -16 28 -35 55 -42 60 -7 4 -485 8 -1063 9
-577 0 -1064 4 -1081 8 -64 14 -74 46 -60 181 4 39 11 106 15 150 8 82 6 500
-3 730 -4 100 -11 148 -29 205 -14 41 -23 78 -20 83 2 4 14 7 26 7 39 1 -3 17
-63 25 -50 7 -90 27 -90 45 0 8 126 96 202 141 64 38 104 47 232 55 106 6 185
7 696 5 140 0 273 1 295 3 134 11 265 20 300 19 232 -5 215 -6 262 22 48 29
74 96 75 202 0 77 -10 285 -17 323 -3 14 -7 40 -10 58 -16 99 -77 199 -165
270 -55 45 -85 87 -82 118 6 63 2 88 -16 107 -33 32 -136 46 -332 44 -167 -2
-175 -3 -177 -22 -3 -37 -15 -110 -19 -114 -2 -2 -35 26 -73 62 -97 91 -162
107 -341 82 -19 -3 -116 -7 -215 -10 -139 -4 -194 -1 -244 10 -129 31 -254
120 -267 192 -8 40 2 100 41 243 35 132 36 135 41 225 4 89 -11 149 -52 210
-13 20 -24 42 -24 50 0 8 16 50 35 94 l35 79 0 209 0 208 273 0 c149 0 342 5
427 10 188 11 509 11 765 0 313 -14 615 -12 650 4 65 30 82 82 80 241 -2 116
-14 428 -20 530 -2 36 -7 108 -10 160 -8 140 -14 173 -37 197 -34 37 -78 51
-168 53 -47 1 -121 3 -165 5 -415 15 -1179 27 -1187 20z m5499 -7267 c-3 -7
-5 -2 -5 12 0 14 2 19 5 13 2 -7 2 -19 0 -25z m0 -60 c-3 -7 -5 -2 -5 12 0 14
2 19 5 13 2 -7 2 -19 0 -25z m-860 -220 c-3 -7 -5 -2 -5 12 0 14 2 19 5 13 2
-7 2 -19 0 -25z m1850 -70 c-3 -8 -6 -5 -6 6 -1 11 2 17 5 13 3 -3 4 -12 1
-19z m7 -52 c3 -16 2 -25 -1 -22 -4 4 -9 19 -11 34 -4 35 5 25 12 -12z m1177
-23 c13 -16 12 -17 -3 -4 -17 13 -22 21 -14 21 2 0 10 -8 17 -17z m38 -57 c-3
-3 -11 5 -18 17 -13 21 -12 21 5 5 10 -10 16 -20 13 -22z m-2252 2 c-3 -8 -6
-5 -6 6 -1 11 2 17 5 13 3 -3 4 -12 1 -19z m1040 -10 c-3 -8 -6 -5 -6 6 -1 11
2 17 5 13 3 -3 4 -12 1 -19z m-1850 -30 c-3 -8 -6 -5 -6 6 -1 11 2 17 5 13 3
-3 4 -12 1 -19z m3092 -53 c0 -11 -7 0 -15 25 -17 56 -17 64 1 25 8 -16 14
-39 14 -50z m-2272 23 c-3 -8 -6 -5 -6 6 -1 11 2 17 5 13 3 -3 4 -12 1 -19z
m-820 -70 c-3 -8 -6 -5 -6 6 -1 11 2 17 5 13 3 -3 4 -12 1 -19z m830 -10 c-3
-8 -6 -5 -6 6 -1 11 2 17 5 13 3 -3 4 -12 1 -19z m2270 -30 c-3 -8 -6 -5 -6 6
-1 11 2 17 5 13 3 -3 4 -12 1 -19z m-2260 -65 c-3 -10 -5 -4 -5 12 0 17 2 24
5 18 2 -7 2 -21 0 -30z m2270 -100 c-3 -10 -5 -4 -5 12 0 17 2 24 5 18 2 -7 2
-21 0 -30z m-2260 -35 c-3 -7 -5 -2 -5 12 0 14 2 19 5 13 2 -7 2 -19 0 -25z
m1050 -50 c-3 -8 -6 -5 -6 6 -1 11 2 17 5 13 3 -3 4 -12 1 -19z m1223 7 c0 -8
-2 -15 -4 -15 -2 0 -6 7 -10 15 -3 8 -1 15 4 15 6 0 10 -7 10 -15z m-2273 -17
c-3 -8 -6 -5 -6 6 -1 11 2 17 5 13 3 -3 4 -12 1 -19z m2283 -52 c0 -26 -6 -18
-14 19 -5 22 -4 26 4 15 5 -8 10 -24 10 -34z m-1216 8 c3 -8 2 -12 -4 -9 -6 3
-10 10 -10 16 0 14 7 11 14 -7z m-1083 -37 c-10 -9 -11 -8 -5 6 3 10 9 15 12
12 3 -3 0 -11 -7 -18z m-1764 -49 c-3 -7 -5 -2 -5 12 0 14 2 19 5 13 2 -7 2
-19 0 -25z m1760 0 c-3 -7 -5 -2 -5 12 0 14 2 19 5 13 2 -7 2 -19 0 -25z
m2310 10 c-3 -8 -6 -5 -6 6 -1 11 2 17 5 13 3 -3 4 -12 1 -19z m-1210 -30 c-3
-8 -6 -5 -6 6 -1 11 2 17 5 13 3 -3 4 -12 1 -19z m-1110 -20 c-3 -8 -6 -5 -6
6 -1 11 2 17 5 13 3 -3 4 -12 1 -19z m2330 -10 c-3 -7 -5 -2 -5 12 0 14 2 19
5 13 2 -7 2 -19 0 -25z m-1220 -25 c-3 -10 -5 -4 -5 12 0 17 2 24 5 18 2 -7 2
-21 0 -30z m1235 -42 c2 -22 0 -37 -3 -35 -4 2 -9 22 -11 43 -2 22 0 37 3 35
4 -2 9 -22 11 -43z m-1235 -33 c-3 -7 -5 -2 -5 12 0 14 2 19 5 13 2 -7 2 -19
0 -25z m-2870 0 c-3 -8 -6 -5 -6 6 -1 11 2 17 5 13 3 -3 4 -12 1 -19z m1740
-10 c-3 -8 -6 -5 -6 6 -1 11 2 17 5 13 3 -3 4 -12 1 -19z m2370 -100 c-2 -18
-4 -4 -4 32 0 36 2 50 4 33 2 -18 2 -48 0 -65z m-1240 25 c-3 -10 -5 -4 -5 12
0 17 2 24 5 18 2 -7 2 -21 0 -30z m-1067 13 c0 -3 -4 -8 -10 -11 -5 -3 -10 -1
-10 4 0 6 5 11 10 11 6 0 10 -2 10 -4z m1067 -58 c-3 -8 -6 -5 -6 6 -1 11 2
17 5 13 3 -3 4 -12 1 -19z m-1040 -40 c-3 -7 -5 -2 -5 12 0 14 2 19 5 13 2 -7
2 -19 0 -25z m2274 -1 c-10 -9 -11 -8 -5 6 3 10 9 15 12 12 3 -3 0 -11 -7 -18z
m-1244 -39 c-3 -8 -6 -5 -6 6 -1 11 2 17 5 13 3 -3 4 -12 1 -19z m1240 -65
c-2 -16 -4 -5 -4 22 0 28 2 40 4 28 2 -13 2 -35 0 -50z m-1240 25 c-3 -8 -6
-5 -6 6 -1 11 2 17 5 13 3 -3 4 -12 1 -19z m-2870 -40 c-3 -8 -6 -5 -6 6 -1
11 2 17 5 13 3 -3 4 -12 1 -19z m2870 -10 c-3 -7 -5 -2 -5 12 0 14 2 19 5 13
2 -7 2 -19 0 -25z m1230 -85 c-3 -10 -5 -2 -5 17 0 19 2 27 5 18 2 -10 2 -26
0 -35z m2200 -15 c-3 -7 -5 -2 -5 12 0 14 2 19 5 13 2 -7 2 -19 0 -25z m-2204
-28 c-3 -12 -8 -19 -11 -16 -5 6 5 36 12 36 2 0 2 -9 -1 -20z m2214 -37 c-3
-10 -5 -2 -5 17 0 19 2 27 5 18 2 -10 2 -26 0 -35z m-4470 15 c-3 -8 -6 -5 -6
6 -1 11 2 17 5 13 3 -3 4 -12 1 -19z m1020 0 c-3 -8 -6 -5 -6 6 -1 11 2 17 5
13 3 -3 4 -12 1 -19z m1230 -40 c-3 -7 -5 -2 -5 12 0 14 2 19 5 13 2 -7 2 -19
0 -25z m-1230 -40 c-3 -7 -5 -2 -5 12 0 14 2 19 5 13 2 -7 2 -19 0 -25z m3460
-10 c-3 -7 -5 -2 -5 12 0 14 2 19 5 13 2 -7 2 -19 0 -25z m-2240 -50 c-2 -13
-4 -5 -4 17 -1 22 1 32 4 23 2 -10 2 -28 0 -40z m-1217 32 c0 -5 -5 -10 -11
-10 -5 0 -7 5 -4 10 3 6 8 10 11 10 2 0 4 -4 4 -10z m3457 -538 c-1 -97 -2
-15 -2 183 0 198 1 278 2 177 2 -101 2 -263 0 -360z m-2244 463 c-3 -9 -8 -14
-10 -11 -3 3 -2 9 2 15 9 16 15 13 8 -4z m-2228 -5 c3 -5 1 -10 -4 -10 -6 0
-11 5 -11 10 0 6 2 10 4 10 3 0 8 -4 11 -10z m1002 -42 c-3 -8 -6 -5 -6 6 -1
11 2 17 5 13 3 -3 4 -12 1 -19z m1226 7 c-3 -9 -8 -14 -10 -11 -3 3 -2 9 2 15
9 16 15 13 8 -4z m-1226 -92 c-2 -16 -4 -5 -4 22 0 28 2 40 4 28 2 -13 2 -35
0 -50z m1220 5 c-2 -13 -4 -3 -4 22 0 25 2 35 4 23 2 -13 2 -33 0 -45z m-2222
-38 c3 -5 1 -10 -4 -10 -6 0 -11 5 -11 10 0 6 2 10 4 10 3 0 8 -4 11 -10z
m2222 -12 c-3 -8 -6 -5 -6 6 -1 11 2 17 5 13 3 -3 4 -12 1 -19z m-1220 -10
c-3 -8 -6 -5 -6 6 -1 11 2 17 5 13 3 -3 4 -12 1 -19z m-5070 -70 c-3 -8 -6 -5
-6 6 -1 11 2 17 5 13 3 -3 4 -12 1 -19z m6280 -35 c-3 -10 -5 -4 -5 12 0 17 2
24 5 18 2 -7 2 -21 0 -30z m0 -45 c-3 -8 -6 -5 -6 6 -1 11 2 17 5 13 3 -3 4
-12 1 -19z m-1210 -10 c-3 -8 -6 -5 -6 6 -1 11 2 17 5 13 3 -3 4 -12 1 -19z
m1210 -45 c-3 -10 -5 -4 -5 12 0 17 2 24 5 18 2 -7 2 -21 0 -30z m-4097 -3
c-6 -11 -13 -20 -16 -20 -2 0 0 9 6 20 6 11 13 20 16 20 2 0 0 -9 -6 -20z
m4107 -97 c-3 -10 -5 -4 -5 12 0 17 2 24 5 18 2 -7 2 -21 0 -30z m-2230 -45
c-3 -8 -6 -5 -6 6 -1 11 2 17 5 13 3 -3 4 -12 1 -19z m2242 -48 c-1 -53 -6
-44 -12 24 -3 30 -1 43 4 35 5 -8 8 -34 8 -59z m-1234 31 c3 -5 2 -12 -3 -15
-5 -3 -9 1 -9 9 0 17 3 19 12 6z m-8 -113 c-3 -8 -6 -5 -6 6 -1 11 2 17 5 13
3 -3 4 -12 1 -19z m3480 0 c-3 -8 -6 -5 -6 6 -1 11 2 17 5 13 3 -3 4 -12 1
-19z m-4494 -63 c-3 -9 -8 -14 -10 -11 -3 3 -2 9 2 15 9 16 15 13 8 -4z m2254
-27 c-3 -8 -6 -5 -6 6 -1 11 2 17 5 13 3 -3 4 -12 1 -19z m-21 -46 c-17 -16
-18 -16 -5 5 7 12 15 20 18 17 3 -2 -3 -12 -13 -22z"/>
<path d="M1185 14510 c3 -5 8 -10 11 -10 2 0 4 5 4 10 0 6 -5 10 -11 10 -5 0
-7 -4 -4 -10z"/>
<path d="M14563 10592 c-518 -218 -910 -244 -1351 -89 l-73 26 -492 1 -492 0
-22 -32 c-22 -32 -22 -41 -26 -433 -2 -220 -2 -420 1 -443 l4 -44 65 7 c35 3
74 8 86 11 94 18 647 26 772 11 137 -17 222 -29 260 -37 22 -5 51 -11 65 -13
14 -3 63 -13 110 -22 47 -9 101 -18 120 -20 19 -3 44 -6 55 -9 101 -25 508
-26 630 -2 11 2 41 7 66 10 150 20 395 104 444 152 l35 34 1 117 c5 619 2 781
-15 808 -27 41 -87 33 -243 -33z"/>
<path d="M17091 6703 c-101 -102 -154 -226 -176 -410 -2 -18 5 -74 16 -125 35
-168 35 -165 28 -511 -1 -68 2 -85 27 -135 37 -72 96 -106 184 -105 142 1 201
83 215 293 4 58 8 115 10 127 8 51 19 339 20 498 0 164 -1 172 -27 227 -35 75
-96 140 -162 172 -29 14 -59 26 -65 26 -7 0 -38 -26 -70 -57z"/>
</g>
</svg>
